<svg width="276" height="29" viewBox="0 0 276 29" fill="none" xmlns="http://www.w3.org/2000/svg">
<path d="M2.11364 23V5.54545H12.6477V7.42045H4.22727V13.3182H12.1023V15.1932H4.22727V21.125H12.7841V23H2.11364ZM18.196 5.54545V23H16.1847V5.54545H18.196ZM27.1982 23.2727C26.0163 23.2727 24.9794 22.9915 24.0874 22.429C23.201 21.8665 22.5078 21.0795 22.0078 20.0682C21.5135 19.0568 21.2663 17.875 21.2663 16.5227C21.2663 15.1591 21.5135 13.9687 22.0078 12.9517C22.5078 11.9347 23.201 11.1449 24.0874 10.5824C24.9794 10.0199 26.0163 9.73864 27.1982 9.73864C28.38 9.73864 29.4141 10.0199 30.3004 10.5824C31.1925 11.1449 31.8857 11.9347 32.38 12.9517C32.88 13.9687 33.13 15.1591 33.13 16.5227C33.13 17.875 32.88 19.0568 32.38 20.0682C31.8857 21.0795 31.1925 21.8665 30.3004 22.429C29.4141 22.9915 28.38 23.2727 27.1982 23.2727ZM27.1982 21.4659C28.0959 21.4659 28.8345 21.2358 29.4141 20.7756C29.9936 20.3153 30.4226 19.7102 30.701 18.9602C30.9794 18.2102 31.1186 17.3977 31.1186 16.5227C31.1186 15.6477 30.9794 14.8324 30.701 14.0767C30.4226 13.321 29.9936 12.7102 29.4141 12.2443C28.8345 11.7784 28.0959 11.5455 27.1982 11.5455C26.3004 11.5455 25.5618 11.7784 24.9822 12.2443C24.4027 12.7102 23.9737 13.321 23.6953 14.0767C23.4169 14.8324 23.2777 15.6477 23.2777 16.5227C23.2777 17.3977 23.4169 18.2102 23.6953 18.9602C23.9737 19.7102 24.4027 20.3153 24.9822 20.7756C25.5618 21.2358 26.3004 21.4659 27.1982 21.4659ZM45.1321 27.9091V20.9886H44.9616C44.8139 21.2273 44.6037 21.5284 44.331 21.892C44.0582 22.25 43.669 22.571 43.1634 22.8551C42.6577 23.1335 41.9844 23.2727 41.1435 23.2727C40.0526 23.2727 39.0895 22.9972 38.2543 22.446C37.419 21.8892 36.7656 21.1051 36.294 20.0938C35.8224 19.0767 35.5866 17.875 35.5866 16.4886C35.5866 15.1136 35.8224 13.9205 36.294 12.9091C36.7656 11.8977 37.4219 11.1165 38.2628 10.5653C39.1037 10.0142 40.0753 9.73864 41.1776 9.73864C42.0298 9.73864 42.7031 9.88068 43.1974 10.1648C43.6974 10.4432 44.0781 10.7614 44.3395 11.1193C44.6065 11.4716 44.8139 11.7614 44.9616 11.9886H45.2003V9.90909H47.1435V27.9091H45.1321ZM41.4162 21.4659C42.223 21.4659 42.9048 21.2557 43.4616 20.8352C44.0185 20.4091 44.4418 19.821 44.7315 19.071C45.0213 18.3153 45.1662 17.4432 45.1662 16.4545C45.1662 15.4773 45.0241 14.6222 44.7401 13.8892C44.456 13.1506 44.0355 12.5767 43.4787 12.1676C42.9219 11.7528 42.2344 11.5455 41.4162 11.5455C40.5639 11.5455 39.8537 11.7642 39.2855 12.2017C38.723 12.6335 38.2997 13.2216 38.0156 13.9659C37.7372 14.7045 37.598 15.5341 37.598 16.4545C37.598 17.3864 37.7401 18.233 38.0241 18.9943C38.3139 19.75 38.7401 20.3523 39.3026 20.8011C39.8707 21.2443 40.5753 21.4659 41.4162 21.4659ZM59.0753 17.6477V9.90909H61.0866V23H59.0753V20.7841H58.9389C58.6321 21.4489 58.1548 22.0142 57.5071 22.4801C56.8594 22.9403 56.0412 23.1705 55.0526 23.1705C54.2344 23.1705 53.5071 22.9915 52.8707 22.6335C52.2344 22.2699 51.7344 21.7244 51.3707 20.9972C51.0071 20.2642 50.8253 19.3409 50.8253 18.2273V9.90909H52.8366V18.0909C52.8366 19.0455 53.1037 19.8068 53.6378 20.375C54.1776 20.9432 54.8651 21.2273 55.7003 21.2273C56.2003 21.2273 56.7088 21.0994 57.2259 20.8438C57.7486 20.5881 58.1861 20.196 58.5384 19.6676C58.8963 19.1392 59.0753 18.4659 59.0753 17.6477ZM70.2592 23.2727C68.9979 23.2727 67.9098 22.9943 66.995 22.4375C66.0859 21.875 65.3842 21.0909 64.8899 20.0852C64.4013 19.0739 64.157 17.8977 64.157 16.5568C64.157 15.2159 64.4013 14.0341 64.8899 13.0114C65.3842 11.983 66.0717 11.1818 66.9524 10.608C67.8388 10.0284 68.8729 9.73864 70.0547 9.73864C70.7365 9.73864 71.4098 9.85227 72.0746 10.0795C72.7393 10.3068 73.3445 10.6761 73.8899 11.1875C74.4354 11.6932 74.87 12.3636 75.1939 13.1989C75.5178 14.0341 75.6797 15.0625 75.6797 16.2841V17.1364H65.5888V15.3977H73.6342C73.6342 14.6591 73.4865 14 73.1911 13.4205C72.9013 12.8409 72.4865 12.3835 71.9467 12.0483C71.4126 11.7131 70.782 11.5455 70.0547 11.5455C69.2536 11.5455 68.5604 11.7443 67.9751 12.142C67.3956 12.5341 66.9496 13.0455 66.6371 13.6761C66.3246 14.3068 66.1683 14.983 66.1683 15.7045V16.8636C66.1683 17.8523 66.3388 18.6903 66.6797 19.3778C67.0263 20.0597 67.5064 20.5795 68.12 20.9375C68.7337 21.2898 69.4467 21.4659 70.2592 21.4659C70.7876 21.4659 71.2649 21.392 71.6911 21.2443C72.1229 21.0909 72.495 20.8636 72.8075 20.5625C73.12 20.2557 73.3615 19.875 73.532 19.4205L75.4751 19.9659C75.2706 20.625 74.9268 21.2045 74.4439 21.7045C73.9609 22.1989 73.3643 22.5852 72.6541 22.8636C71.9439 23.1364 71.1456 23.2727 70.2592 23.2727ZM80.7507 15.125V23H78.7393V9.90909H80.6825V11.9545H80.853C81.1598 11.2898 81.6257 10.7557 82.2507 10.3523C82.8757 9.94318 83.6825 9.73864 84.6712 9.73864C85.5575 9.73864 86.3331 9.92045 86.9979 10.2841C87.6626 10.642 88.1797 11.1875 88.549 11.9205C88.9183 12.6477 89.103 13.5682 89.103 14.6818V23H87.0916V14.8182C87.0916 13.7898 86.8246 12.9886 86.2905 12.4148C85.7564 11.8352 85.0234 11.5455 84.0916 11.5455C83.4496 11.5455 82.8757 11.6847 82.37 11.9631C81.87 12.2415 81.4751 12.6477 81.1854 13.1818C80.8956 13.7159 80.7507 14.3636 80.7507 15.125ZM98.4716 9.90909V11.6136H91.6875V9.90909H98.4716ZM93.6648 6.77273H95.6761V19.25C95.6761 19.8182 95.7585 20.2443 95.9233 20.5284C96.0938 20.8068 96.3097 20.9943 96.571 21.0909C96.8381 21.1818 97.1193 21.2273 97.4148 21.2273C97.6364 21.2273 97.8182 21.2159 97.9602 21.1932C98.1023 21.1648 98.2159 21.142 98.3011 21.125L98.7102 22.9318C98.5739 22.983 98.3835 23.0341 98.1392 23.0852C97.8949 23.142 97.5852 23.1705 97.2102 23.1705C96.642 23.1705 96.0852 23.0483 95.5398 22.804C95 22.5597 94.5511 22.1875 94.1932 21.6875C93.8409 21.1875 93.6648 20.5568 93.6648 19.7955V6.77273ZM244.728 23.2386C243.603 23.2386 242.6 23.0455 241.719 22.6591C240.844 22.2727 240.148 21.7358 239.631 21.0483C239.12 20.3551 238.842 19.5511 238.796 18.6364H240.944C240.989 19.1989 241.183 19.6847 241.523 20.0938C241.864 20.4972 242.31 20.8097 242.862 21.0312C243.413 21.2528 244.023 21.3636 244.694 21.3636C245.444 21.3636 246.109 21.233 246.688 20.9716C247.268 20.7102 247.722 20.3466 248.052 19.8807C248.381 19.4148 248.546 18.875 248.546 18.2614C248.546 17.6193 248.387 17.054 248.069 16.5653C247.751 16.071 247.285 15.6847 246.671 15.4062C246.058 15.1278 245.308 14.9886 244.421 14.9886H243.023V13.1136H244.421C245.114 13.1136 245.722 12.9886 246.245 12.7386C246.773 12.4886 247.185 12.1364 247.481 11.6818C247.782 11.2273 247.933 10.6932 247.933 10.0795C247.933 9.48864 247.802 8.97443 247.54 8.53693C247.279 8.09943 246.91 7.75852 246.433 7.5142C245.961 7.26989 245.404 7.14773 244.762 7.14773C244.16 7.14773 243.592 7.25852 243.058 7.48011C242.529 7.69602 242.097 8.01136 241.762 8.42614C241.427 8.83523 241.245 9.32955 241.217 9.90909H239.171C239.205 8.99432 239.481 8.19318 239.998 7.50568C240.515 6.8125 241.191 6.27273 242.026 5.88636C242.867 5.5 243.79 5.30682 244.796 5.30682C245.876 5.30682 246.802 5.52557 247.575 5.96307C248.347 6.39489 248.941 6.96591 249.356 7.67614C249.771 8.38636 249.978 9.15341 249.978 9.97727C249.978 10.9602 249.719 11.7983 249.202 12.4915C248.691 13.1847 247.995 13.6648 247.114 13.9318V14.0682C248.217 14.25 249.077 14.7187 249.697 15.4744C250.316 16.2244 250.626 17.1534 250.626 18.2614C250.626 19.2102 250.367 20.0625 249.85 20.8182C249.339 21.5682 248.64 22.1591 247.754 22.5909C246.867 23.0227 245.859 23.2386 244.728 23.2386ZM254.146 23V9.90909H256.089V11.8864H256.225C256.464 11.2386 256.896 10.7131 257.521 10.3097C258.146 9.90625 258.85 9.70454 259.634 9.70454C259.782 9.70454 259.967 9.70739 260.188 9.71307C260.41 9.71875 260.577 9.72727 260.691 9.73864V11.7841C260.623 11.767 260.467 11.7415 260.222 11.7074C259.984 11.6676 259.731 11.6477 259.464 11.6477C258.827 11.6477 258.259 11.7812 257.759 12.0483C257.265 12.3097 256.873 12.6733 256.583 13.1392C256.299 13.5994 256.157 14.125 256.157 14.7159V23H254.146ZM267.62 23.2727C266.529 23.2727 265.566 22.9972 264.731 22.446C263.896 21.8892 263.242 21.1051 262.771 20.0938C262.299 19.0767 262.063 17.875 262.063 16.4886C262.063 15.1136 262.299 13.9205 262.771 12.9091C263.242 11.8977 263.898 11.1165 264.739 10.5653C265.58 10.0142 266.552 9.73864 267.654 9.73864C268.506 9.73864 269.18 9.88068 269.674 10.1648C270.174 10.4432 270.555 10.7614 270.816 11.1193C271.083 11.4716 271.29 11.7614 271.438 11.9886H271.609V5.54545H273.62V23H271.677V20.9886H271.438C271.29 21.2273 271.08 21.5284 270.808 21.892C270.535 22.25 270.146 22.571 269.64 22.8551C269.134 23.1335 268.461 23.2727 267.62 23.2727ZM267.893 21.4659C268.7 21.4659 269.381 21.2557 269.938 20.8352C270.495 20.4091 270.918 19.821 271.208 19.071C271.498 18.3153 271.643 17.4432 271.643 16.4545C271.643 15.4773 271.501 14.6222 271.217 13.8892C270.933 13.1506 270.512 12.5767 269.955 12.1676C269.398 11.7528 268.711 11.5455 267.893 11.5455C267.04 11.5455 266.33 11.7642 265.762 12.2017C265.2 12.6335 264.776 13.2216 264.492 13.9659C264.214 14.7045 264.075 15.5341 264.075 16.4545C264.075 17.3864 264.217 18.233 264.501 18.9943C264.79 19.75 265.217 20.3523 265.779 20.8011C266.347 21.2443 267.052 21.4659 267.893 21.4659Z" fill="white"/>
<path d="M114.115 5.54545H117.763V17.7159C117.763 18.8409 117.51 19.8182 117.004 20.6477C116.504 21.4773 115.808 22.1165 114.916 22.5653C114.024 23.0142 112.987 23.2386 111.805 23.2386C110.754 23.2386 109.8 23.054 108.942 22.6847C108.089 22.3097 107.413 21.7415 106.913 20.9801C106.413 20.2131 106.166 19.25 106.172 18.0909H109.845C109.857 18.5511 109.95 18.946 110.126 19.2756C110.308 19.5994 110.555 19.8494 110.868 20.0256C111.186 20.196 111.561 20.2812 111.993 20.2812C112.447 20.2812 112.831 20.1847 113.143 19.9915C113.462 19.7926 113.703 19.5028 113.868 19.1222C114.033 18.7415 114.115 18.2727 114.115 17.7159V5.54545ZM124.479 23.2472C123.643 23.2472 122.899 23.1023 122.246 22.8125C121.592 22.517 121.075 22.0824 120.695 21.5085C120.32 20.929 120.132 20.2074 120.132 19.3438C120.132 18.6165 120.266 18.0057 120.533 17.5114C120.8 17.017 121.163 16.6193 121.624 16.3182C122.084 16.017 122.607 15.7898 123.192 15.6364C123.783 15.483 124.402 15.375 125.05 15.3125C125.811 15.233 126.425 15.1591 126.891 15.0909C127.357 15.017 127.695 14.9091 127.905 14.767C128.115 14.625 128.22 14.4148 128.22 14.1364V14.0852C128.22 13.5455 128.05 13.1278 127.709 12.8324C127.374 12.5369 126.896 12.3892 126.277 12.3892C125.624 12.3892 125.104 12.5341 124.717 12.8239C124.331 13.108 124.075 13.4659 123.95 13.8977L120.592 13.625C120.763 12.8295 121.098 12.142 121.598 11.5625C122.098 10.9773 122.743 10.5284 123.533 10.2159C124.328 9.89773 125.249 9.73864 126.294 9.73864C127.021 9.73864 127.717 9.82386 128.382 9.99432C129.053 10.1648 129.646 10.429 130.163 10.7869C130.686 11.1449 131.098 11.6051 131.399 12.1676C131.7 12.7244 131.851 13.392 131.851 14.1705V23H128.408V21.1847H128.305C128.095 21.5938 127.814 21.9545 127.462 22.267C127.109 22.5739 126.686 22.8153 126.192 22.9915C125.697 23.1619 125.126 23.2472 124.479 23.2472ZM125.518 20.7415C126.053 20.7415 126.524 20.6364 126.933 20.4261C127.342 20.2102 127.663 19.9205 127.896 19.5568C128.129 19.1932 128.246 18.7812 128.246 18.321V16.9318C128.132 17.0057 127.976 17.0739 127.777 17.1364C127.584 17.1932 127.365 17.2472 127.121 17.2983C126.876 17.3437 126.632 17.3864 126.388 17.4261C126.143 17.4602 125.922 17.4915 125.723 17.5199C125.297 17.5824 124.925 17.6818 124.607 17.8182C124.288 17.9545 124.041 18.1392 123.865 18.3722C123.689 18.5994 123.601 18.8835 123.601 19.2244C123.601 19.7188 123.78 20.0966 124.138 20.358C124.501 20.6136 124.962 20.7415 125.518 20.7415ZM146.403 9.90909L141.827 23H137.736L133.159 9.90909H136.994L139.713 19.2756H139.849L142.56 9.90909H146.403ZM151.643 23.2472C150.808 23.2472 150.063 23.1023 149.41 22.8125C148.756 22.517 148.239 22.0824 147.859 21.5085C147.484 20.929 147.296 20.2074 147.296 19.3438C147.296 18.6165 147.43 18.0057 147.697 17.5114C147.964 17.017 148.327 16.6193 148.788 16.3182C149.248 16.017 149.771 15.7898 150.356 15.6364C150.947 15.483 151.566 15.375 152.214 15.3125C152.975 15.233 153.589 15.1591 154.055 15.0909C154.521 15.017 154.859 14.9091 155.069 14.767C155.279 14.625 155.384 14.4148 155.384 14.1364V14.0852C155.384 13.5455 155.214 13.1278 154.873 12.8324C154.538 12.5369 154.06 12.3892 153.441 12.3892C152.788 12.3892 152.268 12.5341 151.881 12.8239C151.495 13.108 151.239 13.4659 151.114 13.8977L147.756 13.625C147.927 12.8295 148.262 12.142 148.762 11.5625C149.262 10.9773 149.907 10.5284 150.697 10.2159C151.492 9.89773 152.413 9.73864 153.458 9.73864C154.185 9.73864 154.881 9.82386 155.546 9.99432C156.217 10.1648 156.81 10.429 157.327 10.7869C157.85 11.1449 158.262 11.6051 158.563 12.1676C158.864 12.7244 159.015 13.392 159.015 14.1705V23H155.572V21.1847H155.469C155.259 21.5938 154.978 21.9545 154.626 22.267C154.273 22.5739 153.85 22.8153 153.356 22.9915C152.862 23.1619 152.29 23.2472 151.643 23.2472ZM152.683 20.7415C153.217 20.7415 153.688 20.6364 154.097 20.4261C154.506 20.2102 154.827 19.9205 155.06 19.5568C155.293 19.1932 155.41 18.7812 155.41 18.321V16.9318C155.296 17.0057 155.14 17.0739 154.941 17.1364C154.748 17.1932 154.529 17.2472 154.285 17.2983C154.04 17.3437 153.796 17.3864 153.552 17.4261C153.308 17.4602 153.086 17.4915 152.887 17.5199C152.461 17.5824 152.089 17.6818 151.771 17.8182C151.452 17.9545 151.205 18.1392 151.029 18.3722C150.853 18.5994 150.765 18.8835 150.765 19.2244C150.765 19.7188 150.944 20.0966 151.302 20.358C151.665 20.6136 152.126 20.7415 152.683 20.7415ZM171.369 10.5653C171.3 9.87784 171.008 9.34375 170.491 8.96307C169.974 8.58239 169.272 8.39204 168.386 8.39204C167.783 8.39204 167.275 8.47727 166.86 8.64773C166.445 8.8125 166.127 9.04261 165.906 9.33807C165.69 9.63352 165.582 9.96875 165.582 10.3438C165.57 10.6562 165.636 10.929 165.778 11.1619C165.925 11.3949 166.127 11.5966 166.383 11.767C166.638 11.9318 166.934 12.0767 167.269 12.2017C167.604 12.321 167.962 12.4233 168.343 12.5085L169.911 12.8835C170.673 13.054 171.371 13.2812 172.008 13.5653C172.644 13.8494 173.195 14.1989 173.661 14.6136C174.127 15.0284 174.488 15.517 174.744 16.0795C175.005 16.642 175.138 17.2869 175.144 18.0142C175.138 19.0824 174.866 20.0085 174.326 20.7926C173.792 21.571 173.019 22.1761 172.008 22.608C171.002 23.0341 169.789 23.2472 168.369 23.2472C166.96 23.2472 165.732 23.0312 164.687 22.5994C163.647 22.1676 162.835 21.5284 162.249 20.6818C161.67 19.8295 161.366 18.7756 161.337 17.5199H164.908C164.948 18.1051 165.116 18.5937 165.411 18.9858C165.712 19.3722 166.113 19.6648 166.613 19.8636C167.119 20.0568 167.69 20.1534 168.326 20.1534C168.951 20.1534 169.494 20.0625 169.954 19.8807C170.42 19.6989 170.781 19.446 171.036 19.1222C171.292 18.7983 171.42 18.4261 171.42 18.0057C171.42 17.6136 171.303 17.2841 171.07 17.017C170.843 16.75 170.508 16.5227 170.065 16.3352C169.627 16.1477 169.09 15.9773 168.454 15.8239L166.553 15.3466C165.082 14.9886 163.92 14.429 163.067 13.6676C162.215 12.9062 161.792 11.8807 161.798 10.5909C161.792 9.53409 162.073 8.6108 162.641 7.82102C163.215 7.03125 164.002 6.41477 165.002 5.97159C166.002 5.52841 167.138 5.30682 168.411 5.30682C169.707 5.30682 170.837 5.52841 171.803 5.97159C172.775 6.41477 173.531 7.03125 174.07 7.82102C174.61 8.6108 174.888 9.52557 174.906 10.5653H171.369ZM183.473 23.2557C182.132 23.2557 180.979 22.9716 180.013 22.4034C179.053 21.8295 178.314 21.0341 177.797 20.017C177.286 19 177.03 17.8295 177.03 16.5057C177.03 15.1648 177.288 13.9886 177.805 12.9773C178.328 11.9602 179.07 11.1676 180.03 10.5994C180.99 10.0256 182.132 9.73864 183.456 9.73864C184.598 9.73864 185.598 9.94602 186.456 10.3608C187.314 10.7756 187.993 11.358 188.493 12.108C188.993 12.858 189.268 13.7386 189.32 14.75H185.893C185.797 14.0966 185.541 13.571 185.126 13.1733C184.717 12.7699 184.18 12.5682 183.516 12.5682C182.953 12.5682 182.462 12.7216 182.041 13.0284C181.626 13.3295 181.303 13.7699 181.07 14.3494C180.837 14.929 180.72 15.6307 180.72 16.4545C180.72 17.2898 180.834 18 181.061 18.5852C181.294 19.1705 181.621 19.6165 182.041 19.9233C182.462 20.2301 182.953 20.3835 183.516 20.3835C183.93 20.3835 184.303 20.2983 184.632 20.1278C184.967 19.9574 185.243 19.7102 185.459 19.3864C185.68 19.0568 185.825 18.6619 185.893 18.2017H189.32C189.263 19.2017 188.99 20.0824 188.501 20.8438C188.018 21.5994 187.351 22.1903 186.499 22.6165C185.646 23.0426 184.638 23.2557 183.473 23.2557ZM191.644 23V9.90909H195.164V12.1932H195.3C195.539 11.3807 195.94 10.767 196.502 10.3523C197.065 9.93182 197.712 9.72159 198.445 9.72159C198.627 9.72159 198.823 9.73295 199.033 9.75568C199.244 9.77841 199.428 9.80966 199.587 9.84943V13.071C199.417 13.0199 199.181 12.9744 198.88 12.9347C198.579 12.8949 198.303 12.875 198.053 12.875C197.519 12.875 197.042 12.9915 196.621 13.2244C196.207 13.4517 195.877 13.7699 195.633 14.179C195.394 14.5881 195.275 15.0597 195.275 15.5938V23H191.644ZM201.464 23V9.90909H205.095V23H201.464ZM203.288 8.22159C202.749 8.22159 202.286 8.04261 201.899 7.68466C201.518 7.32102 201.328 6.88636 201.328 6.38068C201.328 5.88068 201.518 5.4517 201.899 5.09375C202.286 4.73011 202.749 4.54829 203.288 4.54829C203.828 4.54829 204.288 4.73011 204.669 5.09375C205.055 5.4517 205.249 5.88068 205.249 6.38068C205.249 6.88636 205.055 7.32102 204.669 7.68466C204.288 8.04261 203.828 8.22159 203.288 8.22159ZM208.004 27.9091V9.90909H211.583V12.108H211.745C211.904 11.7557 212.134 11.3977 212.435 11.0341C212.742 10.6648 213.14 10.358 213.629 10.1136C214.123 9.86364 214.737 9.73864 215.469 9.73864C216.424 9.73864 217.305 9.98864 218.112 10.4886C218.918 10.983 219.563 11.7301 220.046 12.7301C220.529 13.7244 220.771 14.9716 220.771 16.4716C220.771 17.9318 220.535 19.1648 220.063 20.1705C219.597 21.1705 218.961 21.929 218.154 22.446C217.353 22.9574 216.455 23.2131 215.461 23.2131C214.756 23.2131 214.157 23.0966 213.663 22.8636C213.174 22.6307 212.773 22.3381 212.461 21.9858C212.148 21.6278 211.91 21.267 211.745 20.9034H211.634V27.9091H208.004ZM211.558 16.4545C211.558 17.233 211.665 17.9119 211.881 18.4915C212.097 19.071 212.41 19.5227 212.819 19.8466C213.228 20.1648 213.725 20.3239 214.31 20.3239C214.901 20.3239 215.401 20.1619 215.81 19.8381C216.219 19.5085 216.529 19.054 216.739 18.4744C216.955 17.8892 217.063 17.2159 217.063 16.4545C217.063 15.6989 216.958 15.0341 216.748 14.4602C216.538 13.8864 216.228 13.4375 215.819 13.1136C215.41 12.7898 214.907 12.6278 214.31 12.6278C213.719 12.6278 213.219 12.7841 212.81 13.0966C212.407 13.4091 212.097 13.8523 211.881 14.4261C211.665 15 211.558 15.6761 211.558 16.4545ZM230.154 9.90909V12.6364H222.271V9.90909H230.154ZM224.06 6.77273H227.691V18.9773C227.691 19.3125 227.742 19.5739 227.844 19.7614C227.947 19.9432 228.089 20.071 228.271 20.1449C228.458 20.2187 228.674 20.2557 228.918 20.2557C229.089 20.2557 229.259 20.2415 229.43 20.2131C229.6 20.179 229.731 20.1534 229.822 20.1364L230.393 22.8381C230.211 22.8949 229.955 22.9602 229.626 23.0341C229.296 23.1136 228.896 23.1619 228.424 23.179C227.549 23.2131 226.782 23.0966 226.123 22.8295C225.469 22.5625 224.961 22.1477 224.597 21.5852C224.234 21.0227 224.055 20.3125 224.06 19.4545V6.77273Z" fill="#F8D410"/>
</svg>
